<?xml version="1.0" encoding="UTF-8"?>
<svg width="18px" height="4px" viewBox="0 0 18 4" version="1.1" xmlns="http://www.w3.org/2000/svg" xmlns:xlink="http://www.w3.org/1999/xlink">
    <!-- Generator: Sketch 59 (86127) - https://sketch.com -->
    <title>Combined Shape</title>
    <desc>Created with Sketch.</desc>
    <g id="Page-1" stroke="none" stroke-width="1" fill="none" fill-rule="evenodd">
        <g id="Desktop-HD" transform="translate(-1372.000000, -58.000000)" fill="#000000">
            <path d="M1374,58 C1375.10457,58 1376,58.8954305 1376,60 C1376,61.1045695 1375.10457,62 1374,62 C1372.89543,62 1372,61.1045695 1372,60 C1372,58.8954305 1372.89543,58 1374,58 Z M1381,58 C1382.10457,58 1383,58.8954305 1383,60 C1383,61.1045695 1382.10457,62 1381,62 C1379.89543,62 1379,61.1045695 1379,60 C1379,58.8954305 1379.89543,58 1381,58 Z M1388,58 C1389.10457,58 1390,58.8954305 1390,60 C1390,61.1045695 1389.10457,62 1388,62 C1386.89543,62 1386,61.1045695 1386,60 C1386,58.8954305 1386.89543,58 1388,58 Z" id="Combined-Shape"></path>
        </g>
    </g>
</svg>