<?xml version="1.0" encoding="UTF-8"?>
<svg width="18px" height="4px" viewBox="0 0 18 4" version="1.1" xmlns="http://www.w3.org/2000/svg" xmlns:xlink="http://www.w3.org/1999/xlink">
    <!-- Generator: Sketch 59 (86127) - https://sketch.com -->
    <title>Combined Shape</title>
    <desc>Created with Sketch.</desc>
    <g id="Page-1" stroke="none" stroke-width="1" fill="none" fill-rule="evenodd">
        <g id="Desktop-HD" transform="translate(-1372.000000, -53.000000)" fill="#A0A0A3">
            <path d="M1374,53 C1375.10457,53 1376,53.8954305 1376,55 C1376,56.1045695 1375.10457,57 1374,57 C1372.89543,57 1372,56.1045695 1372,55 C1372,53.8954305 1372.89543,53 1374,53 Z M1381,53 C1382.10457,53 1383,53.8954305 1383,55 C1383,56.1045695 1382.10457,57 1381,57 C1379.89543,57 1379,56.1045695 1379,55 C1379,53.8954305 1379.89543,53 1381,53 Z M1388,53 C1389.10457,53 1390,53.8954305 1390,55 C1390,56.1045695 1389.10457,57 1388,57 C1386.89543,57 1386,56.1045695 1386,55 C1386,53.8954305 1386.89543,53 1388,53 Z" id="Combined-Shape"></path>
        </g>
    </g>
</svg>